Coordinates
version=1
nRows=7
nColumns=42
inDegrees=yes

Units are S.I. units (second, meters, Newtons, ...)
If the header above contains a line with 'inDegrees', this indicates whether rotational values are in degrees (yes) or radians (no).

endheader
time	pelvis_tilt	pelvis_list	pelvis_rotation	pelvis_tx	pelvis_ty	pelvis_tz	hip_flexion_r	hip_adduction_r	hip_rotation_r	knee_angle_r	knee_adduction_r	knee_angle_r_beta	ankle_angle_r	subtalar_angle_r	mtp_angle_r	hip_flexion_l	hip_adduction_l	hip_rotation_l	knee_angle_l	knee_adduction_l	knee_angle_l_beta	ankle_angle_l	subtalar_angle_l	mtp_angle_l	lumbar_extension	lumbar_bending	lumbar_rotation	arm_flex_r	arm_add_r	arm_rot_r	elbow_flex_r	pro_sup_r	wrist_flex_r	wrist_dev_r	arm_flex_l	arm_add_l	arm_rot_l	elbow_flex_l	pro_sup_l	wrist_flex_l	wrist_dev_l
      1.07000000	      6.45950027	     -2.17917789	      2.56304462	     -1.01881523	      0.89146439	      0.20915046	      9.88935039	     -0.65636224	    -17.08214327	     38.37557172	      6.24300964	      0.66978008	     22.96751947	     19.53010731	     -7.88729559	     22.68950564	     -3.96792889	    -11.26437092	     75.37424473	     -8.93576417	      1.31552874	      6.71882918	    -15.89146190	     -7.88729559	    -19.33973926	      5.53630968	     -1.25593527	      6.52004723	    -11.30146279	    -13.15075022	     36.25126006	     90.00000001	      0.00000000	      0.00000000	     -4.66478306	     -6.05560402	    -27.61832163	     33.22131432	     90.00000001	      0.00000000	      0.00000000
      1.08000000	      6.57891059	     -2.05447510	      2.41169212	     -1.01175098	      0.89202268	      0.20964558	      9.11105322	     -0.62852173	    -16.83258680	     38.12924814	      6.22254408	      0.66548092	     23.36668714	     19.58651255	     -7.87726317	     23.78208204	     -3.58136358	    -11.27864060	     74.21374118	     -8.91914409	      1.29527413	      7.37062502	    -15.31246968	     -7.87726317	    -19.64617890	      5.36319857	     -1.01608385	      7.18361141	    -11.47568512	    -12.53524599	     36.45726488	     90.00000001	      0.00000000	      0.00000000	     -4.87375430	     -5.89396132	    -27.62816852	     33.70555529	     90.00000001	      0.00000000	      0.00000000
      1.09000000	      6.52259445	     -1.97412581	      2.23009569	     -1.00479494	      0.89219916	      0.21026926	      8.61992785	     -0.50667716	    -16.61056677	     37.97494513	      6.05374587	      0.66278783	     23.45619820	     19.51986247	     -7.87157441	     25.02346914	     -3.29074874	    -11.16131880	     72.84923658	     -8.71653137	      1.27145904	      7.58980330	    -14.58511887	     -7.87157441	    -19.74051078	      5.21793242	     -0.70623080	      7.77806055	    -11.58175957	    -12.26594596	     36.72946927	     90.00000001	      0.00000000	      0.00000000	     -5.03072507	     -5.72951540	    -27.58677072	     34.06773462	     90.00000001	      0.00000000	      0.00000000
      1.10000000	      6.68946619	     -1.74441570	      1.95362168	     -0.99765109	      0.89286476	      0.21093186	      7.76518687	     -0.52962016	    -16.20528484	     37.62303259	      5.95697997	      0.65664579	     24.00992686	     19.62409708	     -7.86386845	     25.76446532	     -2.87602506	    -11.23259168	     71.04316082	     -8.48258674	      1.23993707	      8.11179937	    -13.73461004	     -7.86386845	    -20.09362255	      4.87161880	     -0.43601851	      8.51647021	    -11.70724258	    -11.60109971	     36.71916822	     90.00000001	      0.00000000	      0.00000000	     -5.33128251	     -5.56970534	    -27.64279488	     34.77008221	     90.00000001	      0.00000000	      0.00000000
      1.11000000	      6.98969587	     -1.58774975	      1.65092065	     -0.99016542	      0.89364242	      0.21153484	      6.75516634	     -0.64353894	    -16.17508063	     37.40711734	      5.89763570	      0.65287736	     24.44359198	     20.49067273	     -7.84158457	     26.22989053	     -2.65190887	    -12.10203376	     68.87646226	     -8.91331197	      1.20212104	      8.84809652	    -11.61170115	     -7.84158457	    -20.54797843	      4.63513036	     -0.17431819	      9.16545923	    -12.00046708	    -10.24424674	     36.79608237	     90.00000001	      0.00000000	      0.00000000	     -5.62254903	     -5.29398329	    -27.87421496	     35.38637606	     90.00000001	      0.00000000	      0.00000000
      1.12000000	      7.02202989	     -1.46566048	      1.38086301	     -0.98298370	      0.89383812	      0.21223890	      6.11308079	     -0.63599989	    -15.88960752	     37.20211766	      5.84591364	      0.64929944	     24.83850017	     20.57554302	     -7.83158666	     26.98118253	     -2.42134839	    -12.04913911	     66.69858620	     -8.49511091	      1.16410994	      9.12479909	    -10.61977036	     -7.83158666	    -20.70019884	      4.40181796	      0.09158270	      9.85247696	    -12.03607483	     -9.86778664	     36.75937907	     90.00000001	      0.00000000	      0.00000000	     -5.89935101	     -5.09841759	    -27.90830465	     35.94489557	     90.00000001	      0.00000000	      0.00000000
      1.13000000	      7.10190578	     -1.35062837	      1.06570737	     -0.97556816	      0.89402048	      0.21297507	      5.38305837	     -0.67479275	    -15.78674670	     36.98227034	      5.75845205	      0.64546238	     25.17453617	     21.09838607	     -7.81596758	     27.55510907	     -2.23733013	    -12.51237413	     64.23931532	     -8.51035454	      1.12118756	      9.60816764	     -8.85524701	     -7.81596758	    -20.87400440	      4.16891833	      0.35658623	     10.50137412	    -12.11040326	     -9.19375256	     36.73801510	     90.00000001	      0.00000000	      0.00000000	     -6.19188489	     -4.87184966	    -28.06918076	     36.45034541	     90.00000001	      0.00000000	      0.00000000
